<svg xmlns="http://www.w3.org/2000/svg" viewBox="0 0 132 132"><defs><style>.cls-1{fill:#eee7e5;}.cls-2{fill:#9dc5bd;}.cls-3{fill:#a9cdc6;opacity:0.42;}.cls-4{fill:#fff;}</style></defs><g id="Pasos"><rect class="cls-1" width="132" height="132"/><rect class="cls-2" x="37.75" y="8.7" width="51.2" height="96.72" rx="9.18"/><rect class="cls-3" x="2.92" y="15.44" width="43.62" height="82.39" rx="9.18"/><rect class="cls-3" x="78.77" y="15.44" width="43.62" height="82.39" rx="9.18"/><path class="cls-4" d="M52.49,89.52A61.85,61.85,0,0,0,63.33,68.64L61.16,68a14.81,14.81,0,0,0,3,12.26c2.73,3.62,6.52,6.18,10.24,8.68,1.21.81,2.33-1.14,1.14-1.94-6-4-14.25-10-12.2-18.4a1.13,1.13,0,0,0-2.17-.6A59,59,0,0,1,50.9,87.93c-.89,1.12.69,2.73,1.59,1.59Z"/><path class="cls-4" d="M54,89.45c1.92-2,4.61-3.19,6.48-5.29s2.91-5,1.59-7.57c-.66-1.3-2.6-.16-1.95,1.13,1,1.92-.46,4.19-1.85,5.48-1.84,1.7-4.13,2.83-5.86,4.66-1,1.06.6,2.65,1.59,1.59Z"/><path class="cls-4" d="M75.84,87.63A70.78,70.78,0,0,1,64.27,68.89c-.55-1.32-2.73-.74-2.17.59A74,74,0,0,0,74.25,89.22c.94,1.1,2.53-.5,1.59-1.59Z"/><path class="cls-4" d="M51.28,90.69a1.13,1.13,0,0,0,0-2.25,1.13,1.13,0,0,0,0,2.25Z"/><path class="cls-4" d="M51.82,90.49a14.59,14.59,0,0,0,6-6,1.13,1.13,0,0,0-1.94-1.14,13.65,13.65,0,0,1-1,1.66s-.21.27,0,.06l-.14.17-.31.38c-.22.24-.44.48-.67.71s-.47.45-.72.67l-.34.28s-.28.2-.06,0l-.21.16a13.69,13.69,0,0,1-1.67,1,1.13,1.13,0,0,0-.4,1.54,1.14,1.14,0,0,0,1.54.4Z"/><path class="cls-4" d="M51.77,90.85a30.1,30.1,0,0,0,7.72-4.34c2.22-1.73,4.49-3.79,4.83-6.73a1.13,1.13,0,1,0-2.25,0,5.15,5.15,0,0,1-1.52,2.77A19.84,19.84,0,0,1,57.8,85a27.12,27.12,0,0,1-6.63,3.7,1.15,1.15,0,0,0-.78,1.38,1.13,1.13,0,0,0,1.38.79Z"/><path class="cls-4" d="M61.86,79.62a8.17,8.17,0,0,0-3.9,0A1.12,1.12,0,0,0,57.18,81a1.15,1.15,0,0,0,1.38.79,6.91,6.91,0,0,1,.79-.16l-.3,0a6.67,6.67,0,0,1,1.84,0l-.3,0c.23,0,.45.07.67.12a1.13,1.13,0,1,0,.6-2.17Z"/><path class="cls-4" d="M61.22,68.3a6.45,6.45,0,0,0-.06,1.81,8,8,0,0,0,.4,1.73,18.62,18.62,0,0,0,1.47,3,1.5,1.5,0,1,0,2.59-1.51c-.35-.62-.71-1.24-1-1.89l0-.09h0l0-.09c-.07-.18-.14-.36-.2-.55a7,7,0,0,1-.23-1l0,.4a4.86,4.86,0,0,1,0-1.32l-.05.4v-.1A1.64,1.64,0,0,0,64,67.94a1.52,1.52,0,0,0-.9-.69,1.49,1.49,0,0,0-1.15.15,1.42,1.42,0,0,0-.69.9Z"/><path class="cls-4" d="M75.75,87.35c-2.09-1.52-4.27-3-6.25-4.63a11.45,11.45,0,0,1-3.9-5.31,1.5,1.5,0,0,0-2.9.79,14.06,14.06,0,0,0,4.53,6.52c2.21,1.89,4.65,3.51,7,5.22a1.5,1.5,0,1,0,1.52-2.59Z"/><path class="cls-4" d="M58.1,85.87a15.33,15.33,0,0,1,1.09-2.23c.46-.76,1-1.47,1.42-2.26a13.74,13.74,0,0,0,.87-2.63,5.2,5.2,0,0,1,.21-.67c-.09.2.16-.24.15-.23s.16-.16.19-.2-.07.06.08,0a.23.23,0,0,1-.16,0l-1.5-1.5A6.17,6.17,0,0,0,60.69,79a2.36,2.36,0,0,0,2.81.9,3.11,3.11,0,0,0,1.73-4.55,1.51,1.51,0,0,0-2.8.75c.07,1.48,1.15,2.5,2,3.57l2.62,3.18a1.5,1.5,0,0,0,2.12,0,1.53,1.53,0,0,0,0-2.12L67,78,66,76.75c-.1-.13-.33-.4-.37-.47s-.16-.43-.15-.21l-2.79.76c.1.16.11.19,0,.09s0-.1,0,.09c.06-.19.08,0,0,0,.23-.11-.17,0-.07,0a.15.15,0,0,1,.13,0c-.26,0-.22,0,.11,0l.54.54c.11.21.06.49.1.13a3.49,3.49,0,0,0,0-.56v-1a1.5,1.5,0,0,0-1.5-1.5,3.47,3.47,0,0,0-2.78,1.82,16.71,16.71,0,0,0-1,3A13.55,13.55,0,0,1,56.71,82a18,18,0,0,0-1.5,3.13,1.51,1.51,0,0,0,1,1.84,1.53,1.53,0,0,0,1.84-1Z"/><path class="cls-4" d="M75.12,87.47A18.81,18.81,0,0,1,64.56,80a1.54,1.54,0,0,0-2.06-.54A1.52,1.52,0,0,0,62,81.53a21.93,21.93,0,0,0,12.36,8.83,1.5,1.5,0,0,0,.79-2.89Z"/></g></svg>